<?xml version="1.0" encoding="utf-8"?>
<!-- Generator: Adobe Illustrator 25.0.1, SVG Export Plug-In . SVG Version: 6.00 Build 0)  -->
<svg version="1.1" id="Isolation_Mode" xmlns="http://www.w3.org/2000/svg" xmlns:xlink="http://www.w3.org/1999/xlink" x="0px"
	 y="0px" viewBox="0 0 1920 1080" style="enable-background:new 0 0 1920 1080;" xml:space="preserve">
<style type="text/css">
	.st0{fill:#8B9DA7;}
	.st1{fill:#8C00A0;}
</style>
<g>
	<g>
		<g>
			<path class="st0" d="M755,186.5c0,30.6-21.7,55.5-52.4,55.5h-41.7V130.9h41.7C733.3,130.9,755,155.8,755,186.5z M746.8,186.5
				c0-26.3-17.9-47.6-44.1-47.6h-33.3v95.2h33.3C728.8,234.1,746.8,212.8,746.8,186.5z"/>
			<path class="st0" d="M843.3,202.7c0,1.3-0.2,2.5-0.2,3.8h-71.9c1.9,17.9,15.6,29.7,33.6,29.7c13,0,22.9-6,27.5-14.4l7,4.1
				c-6.5,10.8-18.9,17.9-34.6,17.9c-24.4,0-41.7-17.5-41.7-41.4c0-23.3,16.8-41.4,41.1-41.4C828.2,160.9,843.3,180.9,843.3,202.7z
				 M771.2,198.7H835c-1.7-19.4-15.4-30.2-30.9-30.2C786,168.5,772.8,181.1,771.2,198.7z"/>
			<path class="st0" d="M885.6,138.9v44.4h51.3v7.9h-51.3V242h-8.4V130.9h61.6v7.9H885.6z"/>
			<path class="st0" d="M949.1,137.1c0-3.3,2.9-6.2,6.3-6.2s6.3,2.9,6.3,6.2c0,3.5-2.9,6.3-6.3,6.3S949.1,140.6,949.1,137.1z
				 M951.5,162.7h7.9V242h-7.9V162.7z"/>
			<path class="st0" d="M1052.4,202.7c0,1.3-0.2,2.5-0.2,3.8h-71.9c1.9,17.9,15.6,29.7,33.6,29.7c13,0,22.9-6,27.5-14.4l7,4.1
				c-6.5,10.8-18.9,17.9-34.6,17.9c-24.4,0-41.7-17.5-41.7-41.4c0-23.3,16.8-41.4,41.1-41.4C1037.3,160.9,1052.4,180.9,1052.4,202.7
				z M980.4,198.7h63.8c-1.7-19.4-15.4-30.2-30.9-30.2C995.1,168.5,982,181.1,980.4,198.7z"/>
			<path class="st0" d="M1115,221.2c0,13-11.4,22.5-28.4,22.5c-15.9,0-26.3-7.5-30.2-17.6l6.8-4c2.9,8.6,11.4,14,23.3,14
				c11.1,0,20.5-4.9,20.5-14.9c0-21.6-48.1-9.2-48.1-37.8c0-12.5,10.8-22.5,27-22.5c12.9,0,22.7,6.2,27,15.9l-6.7,3.8
				c-3.3-8.3-11.6-12.1-20.3-12.1c-10.3,0-19,5.4-19,14.9C1066.9,204.7,1115,192.2,1115,221.2z"/>
			<path class="st0" d="M1141.6,170.4V222c0,14,7.5,14.3,23.6,12.9v7.1c-20.8,3.2-31.7-1.9-31.7-20v-51.6h-17.5v-7.8h17.5v-19.8
				l8.1-2.4v22.2h23.6v7.8H1141.6z"/>
			<path class="st0" d="M1251.1,162.7V242h-8.1v-17.9c-6.7,11.9-18.9,19.7-34.1,19.7c-22.5,0-41.1-17.9-41.1-41.4
				c0-23.5,18.6-41.4,41.1-41.4c15.2,0,27.5,7.8,34.1,19.7v-17.9H1251.1z M1243,202.3c0-18.9-14.6-33.8-33.5-33.8
				c-18.9,0-33.6,14.9-33.6,33.8s14.8,33.8,33.6,33.8C1228.4,236.1,1243,221.2,1243,202.3z"/>
		</g>
		<g>
			<path class="st1" d="M1266.3,234.6c0-5.2,4.3-9.5,9.5-9.5s9.5,4.3,9.5,9.5s-4.3,9.5-9.5,9.5S1266.3,239.8,1266.3,234.6z"/>
			<path class="st1" d="M1370.9,211.9v30.9h-15.1v-29.5c0-5-2.4-8.2-7.2-8.2c-5,0-7.8,3.5-7.8,9.4v28.3h-15.1v-29.5
				c0-5-2.4-8.2-7.2-8.2c-5,0-7.8,3.5-7.8,9.4v28.3h-15.1v-50.3h15.1v4.6c2.3-3.4,6.7-6,13.5-6c5.9,0,10.4,2.4,13.2,6.6
				c2.8-4,7.4-6.6,14.6-6.6C1363.3,191.1,1370.9,199.3,1370.9,211.9z"/>
			<path class="st1" d="M1411.7,242.7l-9.3-13.3l-9.3,13.3h-17.3l18-25.5l-17.4-24.7h17.3l8.7,12.5l8.7-12.5h17.3l-17.4,24.7
				l18,25.5H1411.7z"/>
		</g>
	</g>
	<g>
		<path class="st1" d="M496.1,277.8h30.5h30.5c-2.4-11-9.4-20.4-23.9-26.4h-4.2H520C505.5,257.3,498.6,266.8,496.1,277.8z
			 M526.7,257.6l3.5,1.4c6.5,2.7,11.3,6.1,14.5,10.5h-36c3.2-4.4,8-7.8,14.5-10.5L526.7,257.6z"/>
		<path class="st1" d="M589.8,124.2c-3.6-6.7-10-11.4-17.5-12.8c-0.5-0.1-1.1-0.1-1.6,0c-1.7,0.3-3,1.5-3,2.9c0,1.7,1.4,3.3,3.3,3.7
			c5.5,1,10.2,4.5,12.8,9.4c0.8,1.5,2.5,2.4,4,2.2c0.2,0,0.3-0.1,0.5-0.1c0.8-0.2,1.4-0.8,1.7-1.7
			C590.6,126.7,590.5,125.4,589.8,124.2z"/>
		<path class="st1" d="M503.3,127.4c0.8,1.5,2.5,2.4,4,2.2c0.2,0,0.3-0.1,0.5-0.1c0.8-0.2,1.4-0.8,1.7-1.7c0.4-1.1,0.3-2.4-0.3-3.6
			c-3.6-6.7-10-11.4-17.5-12.8c-0.5-0.1-1.1-0.1-1.6,0c-1.7,0.3-3,1.5-3,2.9c0,1.7,1.4,3.3,3.3,3.7
			C496,119.1,500.7,122.5,503.3,127.4z"/>
		<path class="st1" d="M533.1,166.6c-0.5-0.1-1.1-0.1-1.6,0c-1.7,0.3-3,1.5-3,2.9c0,1.7,1.4,3.3,3.3,3.7c5.5,1,10.2,4.5,12.8,9.4
			c0.8,1.5,2.5,2.4,4,2.2c0.2,0,0.3-0.1,0.5-0.1c0.8-0.2,1.4-0.8,1.7-1.7c0.4-1.1,0.3-2.4-0.3-3.6C547,172.7,540.6,168,533.1,166.6z
			"/>
		<path class="st1" d="M609.8,144.3c0-26-18.1-47-40.5-47c-20.8,0-37.8,18.2-40.2,41.6c-2.3-23.4-19.4-41.6-40.2-41.6
			c-22.3,0-40.5,21.1-40.5,47c0,21.2,12.1,39,28.6,44.9c-9.1,5.2-13.7,12.3-15.5,20.4h24c3.9,23.8,21.9,41.8,43.6,41.8
			c21.6,0,39.6-18,43.6-41.8h19.6c-1.7-7.7-5.9-14.4-14-19.5C596.3,185.3,609.8,166.7,609.8,144.3z M484.8,202.4h-12.3
			c2.8-3.8,7-6.8,12.6-9.2l0,0c-0.2,2.2-0.4,4.3-0.4,6.6C484.8,200.7,484.8,201.6,484.8,202.4z M456,144.3c0-21.8,14.8-39.5,33-39.5
			c18.2,0,33,17.7,33,39.5c0,1.6-0.1,3.2-0.3,4.7c-16.3,3.2-29.6,16.8-34.6,34.6C469.8,182.4,456,165.3,456,144.3z M529.2,243.6
			c-20.2,0-36.6-19.7-36.6-43.8c0-24.2,16.4-43.8,36.6-43.8c20.2,0,36.6,19.7,36.6,43.8C565.8,224,549.4,243.6,529.2,243.6z
			 M581.5,202.4h-8c0-0.9,0.1-1.7,0.1-2.6c0-1.5-0.1-2.9-0.2-4.3C576.8,197.4,579.5,199.7,581.5,202.4z M571.3,183.7
			c-5.1-17.9-18.3-31.4-34.6-34.6c-0.2-1.6-0.3-3.1-0.3-4.7c0-21.8,14.8-39.5,33-39.5c18.2,0,33,17.7,33,39.5
			C602.3,165.3,588.5,182.4,571.3,183.7z"/>
	</g>
</g>
</svg>
